# Blender v2.79 (sub 0) OBJ File: ''
# www.blender.org
mtllib untitled.mtl
o Wall_Cube.001
v 6.643850 0.769573 -0.026004
v 6.143850 0.461904 -0.166683
v -3.816278 0.846142 -6.497154
v -3.816278 10.846151 -6.497154
v -3.816278 0.846142 -6.997155
v -3.816278 10.846151 -6.997155
v 6.183732 0.846142 -6.497154
v 6.183732 10.846151 -6.497154
v 6.183732 0.846142 -6.997155
v 6.183732 10.846151 -6.997155
v -4.321912 0.827803 5.032264
v 6.678088 0.827803 5.032264
v -4.321912 0.827803 -6.967737
v 6.678088 0.827803 -6.967737
v -3.816278 0.846141 5.025594
v -3.816278 10.846151 5.025594
v -3.816278 0.846141 4.525594
v -3.816278 10.846151 4.525594
v 6.183732 0.846141 5.025594
v 6.183732 10.846151 5.025594
v 6.183732 0.846141 4.525594
v 6.183732 10.846151 4.525594
v 6.643850 0.812494 5.027287
v 6.643850 10.812504 5.027287
v 6.143850 0.812494 5.027287
v 6.143850 10.812504 5.027287
v 6.643850 0.812494 -6.972726
v 6.643850 10.812504 -6.972726
v 6.143849 0.812494 -6.972726
v 6.143849 10.812504 -6.972726
v -3.824933 0.846141 5.045319
v -3.824933 10.846151 5.045319
v -4.324933 0.846141 5.045319
v -4.324933 10.846151 5.045319
v -3.824934 0.846141 -6.954694
v -3.824934 10.846151 -6.954694
v -4.324934 0.846141 -6.954694
v -4.324934 10.846151 -6.954694
v -4.307992 10.872150 5.055207
v 6.692008 10.872150 5.055207
v -4.307992 10.872150 -6.944793
v 6.692008 10.872150 -6.944793
v 6.232005 0.835647 -0.914711
v 6.232005 10.835656 -0.914711
v 6.232005 0.835647 -6.914716
v 6.232005 10.835656 -6.914716
v 7.232007 0.835647 -0.914711
v 7.232007 10.835656 -0.914711
v 7.232007 0.835647 -6.914716
v 7.232007 10.835656 -6.914716
v 6.217285 0.832963 4.899540
v 6.217285 10.832973 4.899540
v 6.217285 0.832963 2.899538
v 6.217285 10.832973 2.899538
v 7.217287 0.832963 4.899540
v 7.217287 10.832973 4.899540
v 7.217287 0.832963 2.899538
v 7.217287 10.832973 2.899538
v 6.219125 7.819806 3.033195
v 6.219125 10.819809 3.033195
v 6.219125 7.819806 -0.966808
v 6.219125 10.819809 -0.966808
v 7.219126 7.819806 3.033195
v 7.219126 10.819809 3.033195
v 7.219126 7.819806 -0.966808
v 7.219126 10.819809 -0.966808
v 6.396744 0.776028 2.931188
v 7.156744 0.776028 2.931188
v 6.396744 0.776028 -0.968812
v 7.156744 0.776028 -0.968812
vn -1.0000 0.0000 0.0000
vn 0.0000 0.0000 -1.0000
vn 1.0000 0.0000 0.0000
vn 0.0000 0.0000 1.0000
vn 0.0000 -1.0000 0.0000
vn 0.0000 1.0000 0.0000
usemtl None
s off
f 3//1 4//1 6//1 5//1
f 5//2 6//2 10//2 9//2
f 9//3 10//3 8//3 7//3
f 7//4 8//4 4//4 3//4
f 5//5 9//5 7//5 3//5
f 10//6 6//6 4//6 8//6
f 11//6 12//6 14//6 13//6
f 15//1 16//1 18//1 17//1
f 17//2 18//2 22//2 21//2
f 21//3 22//3 20//3 19//3
f 19//4 20//4 16//4 15//4
f 17//5 21//5 19//5 15//5
f 22//6 18//6 16//6 20//6
f 23//4 24//4 26//4 25//4
f 29//2 30//2 28//2 27//2
f 25//5 29//5 27//5 23//5
f 30//6 26//6 24//6 28//6
f 31//4 32//4 34//4 33//4
f 33//1 34//1 38//1 37//1
f 37//2 38//2 36//2 35//2
f 35//3 36//3 32//3 31//3
f 33//5 37//5 35//5 31//5
f 38//6 34//6 32//6 36//6
f 39//6 40//6 42//6 41//6
f 43//1 44//1 46//1 45//1
f 45//2 46//2 50//2 49//2
f 49//3 50//3 48//3 47//3
f 47//4 48//4 44//4 43//4
f 45//5 49//5 47//5 43//5
f 50//6 46//6 44//6 48//6
f 51//1 52//1 54//1 53//1
f 53//2 54//2 58//2 57//2
f 57//3 58//3 56//3 55//3
f 55//4 56//4 52//4 51//4
f 53//5 57//5 55//5 51//5
f 58//6 54//6 52//6 56//6
f 59//1 60//1 62//1 61//1
f 61//2 62//2 66//2 65//2
f 65//3 66//3 64//3 63//3
f 63//4 64//4 60//4 59//4
f 61//5 65//5 63//5 59//5
f 66//6 62//6 60//6 64//6
f 67//6 68//6 70//6 69//6
