# Blender v2.79 (sub 0) OBJ File: ''
# www.blender.org
mtllib untitled.mtl
o Plane
v -1.711159 0.000000 5.000000
v 1.711159 0.000000 5.000000
v -1.711159 0.000000 -5.000000
v 1.711159 0.000000 -5.000000
v 1.656264 0.002948 5.000000
v 1.656264 4.964888 5.000000
v 1.656264 0.002948 -5.000000
v 1.656264 4.964888 -5.000000
v 2.112573 0.002948 5.000000
v 2.112573 4.964888 5.000000
v 2.112573 0.002948 -5.000000
v 2.112573 4.964888 -5.000000
v -1.858225 0.029170 5.000000
v -1.858225 5.003515 5.000000
v -1.858225 0.029170 -5.000000
v -1.858225 5.003515 -5.000000
v -1.401915 0.029170 5.000000
v -1.401915 5.003515 5.000000
v -1.401915 0.029170 -5.000000
v -1.401915 5.003515 -5.000000
v -1.609063 4.977120 5.000000
v 1.813254 4.977120 5.000000
v -1.609063 4.977120 -5.000000
v 1.813254 4.977120 -5.000000
vn 0.0000 1.0000 0.0000
vn -1.0000 0.0000 0.0000
vn 0.0000 0.0000 -1.0000
vn 1.0000 0.0000 0.0000
vn 0.0000 0.0000 1.0000
vn 0.0000 -1.0000 0.0000
usemtl None
s off
f 1//1 2//1 4//1 3//1
f 5//2 6//2 8//2 7//2
f 7//3 8//3 12//3 11//3
f 11//4 12//4 10//4 9//4
f 9//5 10//5 6//5 5//5
f 7//6 11//6 9//6 5//6
f 12//1 8//1 6//1 10//1
f 13//2 14//2 16//2 15//2
f 15//3 16//3 20//3 19//3
f 19//4 20//4 18//4 17//4
f 17//5 18//5 14//5 13//5
f 15//6 19//6 17//6 13//6
f 20//1 16//1 14//1 18//1
f 21//1 22//1 24//1 23//1
